# xmcd
# 
# Track frame offsets:
#     150
#     26368
#     51112
#     89363
#     124311
#     147646
#     189545
# 
# Disc length: 3179
# 
# Revision: 2
# Processed by: cddbd v1.5.2PL0 Copyright (c) Steve Scherf et al.
# Submitted via: fre:ac v1.0.17
# 
DISCID=610c6907
DTITLE=Living in Harmony - Healing
DYEAR=0
DGENRE=New Age
TTITLE0=Morning Air
TTITLE1=Contemplation
TTITLE2=Reawakening
TTITLE3=Breaking Barriers
TTITLE4=Inner Resolve
TTITLE5=Calming the Mind
TTITLE6=Calming the Body
EXTD=
EXTT0=
EXTT1=
EXTT2=
EXTT3=
EXTT4=
EXTT5=
EXTT6=
PLAYORDER=
